0
SECTION
2
HEADER
9
$INSUNITS
70
4
0
ENDSEC
0
SECTION
2
TABLES
0
TABLE
2
LTYPE
0
LTYPE
72
65
70
64
2
CONTINUOUS
3
______
73
0
40
0
0
ENDTAB
0
TABLE
2
LAYER
0
ENDTAB
0
ENDSEC
0
SECTION
2
ENTITIES
0
LINE
8
0
10
87.5
20
-95
11
123.5
21
-95
0
LINE
8
0
10
87.5
20
-95
11
87.5
21
-20
0
LINE
8
0
10
87.5
20
-20
11
123.5
21
-20
0
LINE
8
0
10
123.5
20
-108
11
148.5
21
-108
0
LINE
8
0
10
148.5
20
-108
11
148.5
21
-105.5
0
LINE
8
0
10
123.5
20
-95
11
123.5
21
-108
0
LINE
8
0
10
141.5
20
-16
11
123.5
21
-16
0
LINE
8
0
10
123.5
20
-16
11
123.5
21
-20
0
LINE
8
0
10
148.5
20
-105.5
11
159.5
21
-105.5
0
LINE
8
0
10
166.5
20
-16
11
166.5
21
-13.5
0
LINE
8
0
10
166.5
20
-13.5
11
141.5
21
-13.5
0
LINE
8
0
10
141.5
20
-13.5
11
141.5
21
-16
0
LINE
8
0
10
159.5
20
-108
11
176.9903812
21
-108
0
LINE
8
0
10
159.5
20
-105.5
11
159.5
21
-108
0
LINE
8
0
10
184.5
20
-18.5
11
184.5
21
-16
0
LINE
8
0
10
184.5
20
-16
11
166.5
21
-16
0
LINE
8
0
10
202.5
20
-24.5
11
202.5
21
-18.5
0
LINE
8
0
10
202.5
20
-18.5
11
184.5
21
-18.5
0
LINE
8
0
10
176.9903812
20
-108
11
190.61543
21
-115.8664256
0
LINE
8
0
10
190.2643412
20
-116.2175144
11
203.9809429
21
-129.9341161
0
LINE
8
0
10
224.4498651
20
-117.3873295
11
224.9125734
21
-116.9246212
0
LINE
8
0
10
224.9125734
20
-116.9246212
11
212.4879522
21
-104.5
0
LINE
8
0
10
190.61543
20
-115.8664256
11
190.2643412
21
-116.2175144
0
LINE
8
0
10
203.9809429
20
-129.9341161
11
215.3279221
21
-149.5876605
0
LINE
8
0
10
215.3279221
20
-149.5876605
11
236.1125317
21
-137.5876605
0
LINE
8
0
10
236.1125317
20
-137.5876605
11
224.4498651
21
-117.3873295
0
LINE
8
0
10
356.5
20
-95
11
392.5
21
-95
0
LINE
8
0
10
392.5
20
-95
11
392.5
21
-20
0
LINE
8
0
10
356.5
20
-20
11
392.5
21
-20
0
LINE
8
0
10
331.5
20
-108
11
356.5
21
-108
0
LINE
8
0
10
356.5
20
-108
11
356.5
21
-95
0
LINE
8
0
10
331.5
20
-105.5
11
331.5
21
-108
0
LINE
8
0
10
356.5
20
-20
11
356.5
21
-16
0
LINE
8
0
10
356.5
20
-16
11
338.5
21
-16
0
LINE
8
0
10
320.5
20
-105.5
11
331.5
21
-105.5
0
LINE
8
0
10
338.5
20
-16
11
338.5
21
-13.5
0
LINE
8
0
10
338.5
20
-13.5
11
313.5
21
-13.5
0
LINE
8
0
10
313.5
20
-13.5
11
313.5
21
-16
0
LINE
8
0
10
303.0096188
20
-108
11
320.5
21
-108
0
LINE
8
0
10
320.5
20
-108
11
320.5
21
-105.5
0
LINE
8
0
10
313.5
20
-16
11
295.5
21
-16
0
LINE
8
0
10
295.5
20
-16
11
295.5
21
-18.5
0
LINE
8
0
10
277.5
20
-93.5
11
280.1243557
21
-93.5
0
LINE
8
0
10
277.5
20
-93.5
11
277.5
21
-18.5
0
LINE
8
0
10
295.5
20
-18.5
11
277.5
21
-18.5
0
LINE
8
0
10
289.38457
20
-115.8664256
11
303.0096188
21
-108
0
LINE
8
0
10
280.1243557
20
-93.5
11
270.4426317
21
-99.089746
0
LINE
8
0
10
270.4426317
20
-99.089746
11
271.350254
21
-100.6617938
0
LINE
8
0
10
276.0190571
20
-129.9341161
11
289.7356588
21
-116.2175144
0
LINE
8
0
10
289.7356588
20
-116.2175144
11
289.38457
21
-115.8664256
0
LINE
8
0
10
271.350254
20
-100.6617938
11
255.0874266
21
-116.9246212
0
LINE
8
0
10
255.0874266
20
-116.9246212
11
255.5501349
21
-117.3873295
0
LINE
8
0
10
264.6720779
20
-149.5876605
11
276.0190571
21
-129.9341161
0
LINE
8
0
10
255.5501349
20
-117.3873295
11
243.8874683
21
-137.5876605
0
LINE
8
0
10
243.8874683
20
-137.5876605
11
264.6720779
21
-149.5876605
0
LINE
8
0
10
212.4879522
20
-104.5
11
231.25
21
-104.5
0
LINE
8
0
10
231.25
20
-104.5
11
231.25
21
-24.5
0
LINE
8
0
10
231.25
20
-24.5
11
202.5
21
-24.5
0
LINE
8
0
10
91.25
20
-91.25
11
108.75
21
-91.25
0
LINE
8
0
10
108.75
20
-91.25
11
108.75
21
-74.75
0
LINE
8
0
10
108.75
20
-74.75
11
91.25
21
-74.75
0
LINE
8
0
10
91.25
20
-74.75
11
91.25
21
-91.25
0
LINE
8
0
10
91.25
20
-74.25
11
108.75
21
-74.25
0
LINE
8
0
10
108.75
20
-74.25
11
108.75
21
-57.75
0
LINE
8
0
10
108.75
20
-57.75
11
91.25
21
-57.75
0
LINE
8
0
10
91.25
20
-57.75
11
91.25
21
-74.25
0
LINE
8
0
10
91.25
20
-57.25
11
108.75
21
-57.25
0
LINE
8
0
10
108.75
20
-57.25
11
108.75
21
-40.75
0
LINE
8
0
10
108.75
20
-40.75
11
91.25
21
-40.75
0
LINE
8
0
10
91.25
20
-40.75
11
91.25
21
-57.25
0
LINE
8
0
10
91.25
20
-40.25
11
108.75
21
-40.25
0
LINE
8
0
10
108.75
20
-40.25
11
108.75
21
-23.75
0
LINE
8
0
10
108.75
20
-23.75
11
91.25
21
-23.75
0
LINE
8
0
10
91.25
20
-23.75
11
91.25
21
-40.25
0
LINE
8
0
10
109.25
20
-91.25
11
126.75
21
-91.25
0
LINE
8
0
10
126.75
20
-91.25
11
126.75
21
-74.75
0
LINE
8
0
10
126.75
20
-74.75
11
109.25
21
-74.75
0
LINE
8
0
10
109.25
20
-74.75
11
109.25
21
-91.25
0
LINE
8
0
10
109.25
20
-74.25
11
126.75
21
-74.25
0
LINE
8
0
10
126.75
20
-74.25
11
126.75
21
-57.75
0
LINE
8
0
10
126.75
20
-57.75
11
109.25
21
-57.75
0
LINE
8
0
10
109.25
20
-57.75
11
109.25
21
-74.25
0
LINE
8
0
10
109.25
20
-57.25
11
126.75
21
-57.25
0
LINE
8
0
10
126.75
20
-57.25
11
126.75
21
-40.75
0
LINE
8
0
10
126.75
20
-40.75
11
109.25
21
-40.75
0
LINE
8
0
10
109.25
20
-40.75
11
109.25
21
-57.25
0
LINE
8
0
10
109.25
20
-40.25
11
126.75
21
-40.25
0
LINE
8
0
10
126.75
20
-40.25
11
126.75
21
-23.75
0
LINE
8
0
10
126.75
20
-23.75
11
109.25
21
-23.75
0
LINE
8
0
10
109.25
20
-23.75
11
109.25
21
-40.25
0
LINE
8
0
10
127.25
20
-104.25
11
144.75
21
-104.25
0
LINE
8
0
10
144.75
20
-104.25
11
144.75
21
-87.75
0
LINE
8
0
10
144.75
20
-87.75
11
127.25
21
-87.75
0
LINE
8
0
10
127.25
20
-87.75
11
127.25
21
-104.25
0
LINE
8
0
10
127.25
20
-87.25
11
144.75
21
-87.25
0
LINE
8
0
10
144.75
20
-87.25
11
144.75
21
-70.75
0
LINE
8
0
10
144.75
20
-70.75
11
127.25
21
-70.75
0
LINE
8
0
10
127.25
20
-70.75
11
127.25
21
-87.25
0
LINE
8
0
10
127.25
20
-70.25
11
144.75
21
-70.25
0
LINE
8
0
10
144.75
20
-70.25
11
144.75
21
-53.75
0
LINE
8
0
10
144.75
20
-53.75
11
127.25
21
-53.75
0
LINE
8
0
10
127.25
20
-53.75
11
127.25
21
-70.25
0
LINE
8
0
10
127.25
20
-53.25
11
144.75
21
-53.25
0
LINE
8
0
10
144.75
20
-53.25
11
144.75
21
-36.75
0
LINE
8
0
10
144.75
20
-36.75
11
127.25
21
-36.75
0
LINE
8
0
10
127.25
20
-36.75
11
127.25
21
-53.25
0
LINE
8
0
10
127.25
20
-36.25
11
144.75
21
-36.25
0
LINE
8
0
10
144.75
20
-36.25
11
144.75
21
-19.75
0
LINE
8
0
10
144.75
20
-19.75
11
127.25
21
-19.75
0
LINE
8
0
10
127.25
20
-19.75
11
127.25
21
-36.25
0
LINE
8
0
10
145.25
20
-101.75
11
162.75
21
-101.75
0
LINE
8
0
10
162.75
20
-101.75
11
162.75
21
-85.25
0
LINE
8
0
10
162.75
20
-85.25
11
145.25
21
-85.25
0
LINE
8
0
10
145.25
20
-85.25
11
145.25
21
-101.75
0
LINE
8
0
10
145.25
20
-84.75
11
162.75
21
-84.75
0
LINE
8
0
10
162.75
20
-84.75
11
162.75
21
-68.25
0
LINE
8
0
10
162.75
20
-68.25
11
145.25
21
-68.25
0
LINE
8
0
10
145.25
20
-68.25
11
145.25
21
-84.75
0
LINE
8
0
10
145.25
20
-67.75
11
162.75
21
-67.75
0
LINE
8
0
10
162.75
20
-67.75
11
162.75
21
-51.25
0
LINE
8
0
10
162.75
20
-51.25
11
145.25
21
-51.25
0
LINE
8
0
10
145.25
20
-51.25
11
145.25
21
-67.75
0
LINE
8
0
10
145.25
20
-50.75
11
162.75
21
-50.75
0
LINE
8
0
10
162.75
20
-50.75
11
162.75
21
-34.25
0
LINE
8
0
10
162.75
20
-34.25
11
145.25
21
-34.25
0
LINE
8
0
10
145.25
20
-34.25
11
145.25
21
-50.75
0
LINE
8
0
10
145.25
20
-33.75
11
162.75
21
-33.75
0
LINE
8
0
10
162.75
20
-33.75
11
162.75
21
-17.25
0
LINE
8
0
10
162.75
20
-17.25
11
145.25
21
-17.25
0
LINE
8
0
10
145.25
20
-17.25
11
145.25
21
-33.75
0
LINE
8
0
10
163.25
20
-104.25
11
180.75
21
-104.25
0
LINE
8
0
10
180.75
20
-104.25
11
180.75
21
-87.75
0
LINE
8
0
10
180.75
20
-87.75
11
163.25
21
-87.75
0
LINE
8
0
10
163.25
20
-87.75
11
163.25
21
-104.25
0
LINE
8
0
10
163.25
20
-87.25
11
180.75
21
-87.25
0
LINE
8
0
10
180.75
20
-87.25
11
180.75
21
-70.75
0
LINE
8
0
10
180.75
20
-70.75
11
163.25
21
-70.75
0
LINE
8
0
10
163.25
20
-70.75
11
163.25
21
-87.25
0
LINE
8
0
10
163.25
20
-70.25
11
180.75
21
-70.25
0
LINE
8
0
10
180.75
20
-70.25
11
180.75
21
-53.75
0
LINE
8
0
10
180.75
20
-53.75
11
163.25
21
-53.75
0
LINE
8
0
10
163.25
20
-53.75
11
163.25
21
-70.25
0
LINE
8
0
10
163.25
20
-53.25
11
180.75
21
-53.25
0
LINE
8
0
10
180.75
20
-53.25
11
180.75
21
-36.75
0
LINE
8
0
10
180.75
20
-36.75
11
163.25
21
-36.75
0
LINE
8
0
10
163.25
20
-36.75
11
163.25
21
-53.25
0
LINE
8
0
10
163.25
20
-36.25
11
180.75
21
-36.25
0
LINE
8
0
10
180.75
20
-36.25
11
180.75
21
-19.75
0
LINE
8
0
10
180.75
20
-19.75
11
163.25
21
-19.75
0
LINE
8
0
10
163.25
20
-19.75
11
163.25
21
-36.25
0
LINE
8
0
10
181.25
20
-89.75
11
198.75
21
-89.75
0
LINE
8
0
10
198.75
20
-89.75
11
198.75
21
-73.25
0
LINE
8
0
10
198.75
20
-73.25
11
181.25
21
-73.25
0
LINE
8
0
10
181.25
20
-73.25
11
181.25
21
-89.75
0
LINE
8
0
10
181.25
20
-72.75
11
198.75
21
-72.75
0
LINE
8
0
10
198.75
20
-72.75
11
198.75
21
-56.25
0
LINE
8
0
10
198.75
20
-56.25
11
181.25
21
-56.25
0
LINE
8
0
10
181.25
20
-56.25
11
181.25
21
-72.75
0
LINE
8
0
10
181.25
20
-55.75
11
198.75
21
-55.75
0
LINE
8
0
10
198.75
20
-55.75
11
198.75
21
-39.25
0
LINE
8
0
10
198.75
20
-39.25
11
181.25
21
-39.25
0
LINE
8
0
10
181.25
20
-39.25
11
181.25
21
-55.75
0
LINE
8
0
10
181.25
20
-38.75
11
198.75
21
-38.75
0
LINE
8
0
10
198.75
20
-38.75
11
198.75
21
-22.25
0
LINE
8
0
10
198.75
20
-22.25
11
181.25
21
-22.25
0
LINE
8
0
10
181.25
20
-22.25
11
181.25
21
-38.75
0
LINE
8
0
10
181.0293285
20
-106.0017604
11
196.1847731
21
-114.7517604
0
LINE
8
0
10
196.1847731
20
-114.7517604
11
204.4347731
21
-100.4623412
0
LINE
8
0
10
204.4347731
20
-100.4623412
11
189.2793285
21
-91.7123412
0
LINE
8
0
10
189.2793285
20
-91.7123412
11
181.0293285
21
-106.0017604
0
LINE
8
0
10
195.567642
20
-116.2175144
11
207.9420107
21
-128.5918831
0
LINE
8
0
10
207.9420107
20
-128.5918831
11
219.6092726
21
-116.9246212
0
LINE
8
0
10
219.6092726
20
-116.9246212
11
207.2349039
21
-104.5502525
0
LINE
8
0
10
207.2349039
20
-104.5502525
11
195.567642
21
-116.2175144
0
LINE
8
0
10
207.9505173
20
-129.3096207
11
216.7005173
21
-144.4650653
0
LINE
8
0
10
216.7005173
20
-144.4650653
11
230.9899365
21
-136.2150653
0
LINE
8
0
10
230.9899365
20
-136.2150653
11
222.2399365
21
-121.0596207
0
LINE
8
0
10
222.2399365
20
-121.0596207
11
207.9505173
21
-129.3096207
0
LINE
8
0
10
371.25
20
-91.25
11
388.75
21
-91.25
0
LINE
8
0
10
388.75
20
-91.25
11
388.75
21
-74.75
0
LINE
8
0
10
388.75
20
-74.75
11
371.25
21
-74.75
0
LINE
8
0
10
371.25
20
-74.75
11
371.25
21
-91.25
0
LINE
8
0
10
371.25
20
-74.25
11
388.75
21
-74.25
0
LINE
8
0
10
388.75
20
-74.25
11
388.75
21
-57.75
0
LINE
8
0
10
388.75
20
-57.75
11
371.25
21
-57.75
0
LINE
8
0
10
371.25
20
-57.75
11
371.25
21
-74.25
0
LINE
8
0
10
371.25
20
-57.25
11
388.75
21
-57.25
0
LINE
8
0
10
388.75
20
-57.25
11
388.75
21
-40.75
0
LINE
8
0
10
388.75
20
-40.75
11
371.25
21
-40.75
0
LINE
8
0
10
371.25
20
-40.75
11
371.25
21
-57.25
0
LINE
8
0
10
371.25
20
-40.25
11
388.75
21
-40.25
0
LINE
8
0
10
388.75
20
-40.25
11
388.75
21
-23.75
0
LINE
8
0
10
388.75
20
-23.75
11
371.25
21
-23.75
0
LINE
8
0
10
371.25
20
-23.75
11
371.25
21
-40.25
0
LINE
8
0
10
353.25
20
-91.25
11
370.75
21
-91.25
0
LINE
8
0
10
370.75
20
-91.25
11
370.75
21
-74.75
0
LINE
8
0
10
370.75
20
-74.75
11
353.25
21
-74.75
0
LINE
8
0
10
353.25
20
-74.75
11
353.25
21
-91.25
0
LINE
8
0
10
353.25
20
-74.25
11
370.75
21
-74.25
0
LINE
8
0
10
370.75
20
-74.25
11
370.75
21
-57.75
0
LINE
8
0
10
370.75
20
-57.75
11
353.25
21
-57.75
0
LINE
8
0
10
353.25
20
-57.75
11
353.25
21
-74.25
0
LINE
8
0
10
353.25
20
-57.25
11
370.75
21
-57.25
0
LINE
8
0
10
370.75
20
-57.25
11
370.75
21
-40.75
0
LINE
8
0
10
370.75
20
-40.75
11
353.25
21
-40.75
0
LINE
8
0
10
353.25
20
-40.75
11
353.25
21
-57.25
0
LINE
8
0
10
353.25
20
-40.25
11
370.75
21
-40.25
0
LINE
8
0
10
370.75
20
-40.25
11
370.75
21
-23.75
0
LINE
8
0
10
370.75
20
-23.75
11
353.25
21
-23.75
0
LINE
8
0
10
353.25
20
-23.75
11
353.25
21
-40.25
0
LINE
8
0
10
335.25
20
-104.25
11
352.75
21
-104.25
0
LINE
8
0
10
352.75
20
-104.25
11
352.75
21
-87.75
0
LINE
8
0
10
352.75
20
-87.75
11
335.25
21
-87.75
0
LINE
8
0
10
335.25
20
-87.75
11
335.25
21
-104.25
0
LINE
8
0
10
335.25
20
-87.25
11
352.75
21
-87.25
0
LINE
8
0
10
352.75
20
-87.25
11
352.75
21
-70.75
0
LINE
8
0
10
352.75
20
-70.75
11
335.25
21
-70.75
0
LINE
8
0
10
335.25
20
-70.75
11
335.25
21
-87.25
0
LINE
8
0
10
335.25
20
-70.25
11
352.75
21
-70.25
0
LINE
8
0
10
352.75
20
-70.25
11
352.75
21
-53.75
0
LINE
8
0
10
352.75
20
-53.75
11
335.25
21
-53.75
0
LINE
8
0
10
335.25
20
-53.75
11
335.25
21
-70.25
0
LINE
8
0
10
335.25
20
-53.25
11
352.75
21
-53.25
0
LINE
8
0
10
352.75
20
-53.25
11
352.75
21
-36.75
0
LINE
8
0
10
352.75
20
-36.75
11
335.25
21
-36.75
0
LINE
8
0
10
335.25
20
-36.75
11
335.25
21
-53.25
0
LINE
8
0
10
335.25
20
-36.25
11
352.75
21
-36.25
0
LINE
8
0
10
352.75
20
-36.25
11
352.75
21
-19.75
0
LINE
8
0
10
352.75
20
-19.75
11
335.25
21
-19.75
0
LINE
8
0
10
335.25
20
-19.75
11
335.25
21
-36.25
0
LINE
8
0
10
317.25
20
-101.75
11
334.75
21
-101.75
0
LINE
8
0
10
334.75
20
-101.75
11
334.75
21
-85.25
0
LINE
8
0
10
334.75
20
-85.25
11
317.25
21
-85.25
0
LINE
8
0
10
317.25
20
-85.25
11
317.25
21
-101.75
0
LINE
8
0
10
317.25
20
-84.75
11
334.75
21
-84.75
0
LINE
8
0
10
334.75
20
-84.75
11
334.75
21
-68.25
0
LINE
8
0
10
334.75
20
-68.25
11
317.25
21
-68.25
0
LINE
8
0
10
317.25
20
-68.25
11
317.25
21
-84.75
0
LINE
8
0
10
317.25
20
-67.75
11
334.75
21
-67.75
0
LINE
8
0
10
334.75
20
-67.75
11
334.75
21
-51.25
0
LINE
8
0
10
334.75
20
-51.25
11
317.25
21
-51.25
0
LINE
8
0
10
317.25
20
-51.25
11
317.25
21
-67.75
0
LINE
8
0
10
317.25
20
-50.75
11
334.75
21
-50.75
0
LINE
8
0
10
334.75
20
-50.75
11
334.75
21
-34.25
0
LINE
8
0
10
334.75
20
-34.25
11
317.25
21
-34.25
0
LINE
8
0
10
317.25
20
-34.25
11
317.25
21
-50.75
0
LINE
8
0
10
317.25
20
-33.75
11
334.75
21
-33.75
0
LINE
8
0
10
334.75
20
-33.75
11
334.75
21
-17.25
0
LINE
8
0
10
334.75
20
-17.25
11
317.25
21
-17.25
0
LINE
8
0
10
317.25
20
-17.25
11
317.25
21
-33.75
0
LINE
8
0
10
299.25
20
-104.25
11
316.75
21
-104.25
0
LINE
8
0
10
316.75
20
-104.25
11
316.75
21
-87.75
0
LINE
8
0
10
316.75
20
-87.75
11
299.25
21
-87.75
0
LINE
8
0
10
299.25
20
-87.75
11
299.25
21
-104.25
0
LINE
8
0
10
299.25
20
-87.25
11
316.75
21
-87.25
0
LINE
8
0
10
316.75
20
-87.25
11
316.75
21
-70.75
0
LINE
8
0
10
316.75
20
-70.75
11
299.25
21
-70.75
0
LINE
8
0
10
299.25
20
-70.75
11
299.25
21
-87.25
0
LINE
8
0
10
299.25
20
-70.25
11
316.75
21
-70.25
0
LINE
8
0
10
316.75
20
-70.25
11
316.75
21
-53.75
0
LINE
8
0
10
316.75
20
-53.75
11
299.25
21
-53.75
0
LINE
8
0
10
299.25
20
-53.75
11
299.25
21
-70.25
0
LINE
8
0
10
299.25
20
-53.25
11
316.75
21
-53.25
0
LINE
8
0
10
316.75
20
-53.25
11
316.75
21
-36.75
0
LINE
8
0
10
316.75
20
-36.75
11
299.25
21
-36.75
0
LINE
8
0
10
299.25
20
-36.75
11
299.25
21
-53.25
0
LINE
8
0
10
299.25
20
-36.25
11
316.75
21
-36.25
0
LINE
8
0
10
316.75
20
-36.25
11
316.75
21
-19.75
0
LINE
8
0
10
316.75
20
-19.75
11
299.25
21
-19.75
0
LINE
8
0
10
299.25
20
-19.75
11
299.25
21
-36.25
0
LINE
8
0
10
281.25
20
-89.75
11
298.75
21
-89.75
0
LINE
8
0
10
298.75
20
-89.75
11
298.75
21
-73.25
0
LINE
8
0
10
298.75
20
-73.25
11
281.25
21
-73.25
0
LINE
8
0
10
281.25
20
-73.25
11
281.25
21
-89.75
0
LINE
8
0
10
281.25
20
-72.75
11
298.75
21
-72.75
0
LINE
8
0
10
298.75
20
-72.75
11
298.75
21
-56.25
0
LINE
8
0
10
298.75
20
-56.25
11
281.25
21
-56.25
0
LINE
8
0
10
281.25
20
-56.25
11
281.25
21
-72.75
0
LINE
8
0
10
281.25
20
-55.75
11
298.75
21
-55.75
0
LINE
8
0
10
298.75
20
-55.75
11
298.75
21
-39.25
0
LINE
8
0
10
298.75
20
-39.25
11
281.25
21
-39.25
0
LINE
8
0
10
281.25
20
-39.25
11
281.25
21
-55.75
0
LINE
8
0
10
281.25
20
-38.75
11
298.75
21
-38.75
0
LINE
8
0
10
298.75
20
-38.75
11
298.75
21
-22.25
0
LINE
8
0
10
298.75
20
-22.25
11
281.25
21
-22.25
0
LINE
8
0
10
281.25
20
-22.25
11
281.25
21
-38.75
0
LINE
8
0
10
283.8152269
20
-114.7517604
11
298.9706715
21
-106.0017604
0
LINE
8
0
10
298.9706715
20
-106.0017604
11
290.7206715
21
-91.7123412
0
LINE
8
0
10
290.7206715
20
-91.7123412
11
275.5652269
21
-100.4623412
0
LINE
8
0
10
275.5652269
20
-100.4623412
11
283.8152269
21
-114.7517604
0
LINE
8
0
10
272.0579893
20
-128.5918831
11
284.432358
21
-116.2175144
0
LINE
8
0
10
284.432358
20
-116.2175144
11
272.7650961
21
-104.5502525
0
LINE
8
0
10
272.7650961
20
-104.5502525
11
260.3907274
21
-116.9246212
0
LINE
8
0
10
260.3907274
20
-116.9246212
11
272.0579893
21
-128.5918831
0
LINE
8
0
10
263.2994827
20
-144.4650653
11
272.0494827
21
-129.3096207
0
LINE
8
0
10
272.0494827
20
-129.3096207
11
257.7600635
21
-121.0596207
0
LINE
8
0
10
257.7600635
20
-121.0596207
11
249.0100635
21
-136.2150653
0
LINE
8
0
10
249.0100635
20
-136.2150653
11
263.2994827
21
-144.4650653
0
ENDSEC
0
EOF