0
SECTION
2
HEADER
9
$INSUNITS
70
4
0
ENDSEC
0
SECTION
2
TABLES
0
TABLE
2
LTYPE
0
LTYPE
72
65
70
64
2
CONTINUOUS
3
______
73
0
40
0
0
ENDTAB
0
TABLE
2
LAYER
0
ENDTAB
0
ENDSEC
0
SECTION
2
ENTITIES
0
LINE
8
0
10
87.5
20
-97
11
119.5
21
-97
0
LINE
8
0
10
121.5
20
-99
11
121.5
21
-108
0
ARC
8
0
10
123.5
20
-108
40
2
50
180
51
270
0
LINE
8
0
10
123.5
20
-110
11
148.5
21
-110
0
ARC
8
0
10
148.5
20
-108
40
2
50
270
51
360
0
LINE
8
0
10
150.5
20
-108
11
150.5
21
-107.5
0
LINE
8
0
10
150.5
20
-107.5
11
157.5
21
-107.5
0
LINE
8
0
10
157.5
20
-107.5
11
157.5
21
-108
0
ARC
8
0
10
159.5
20
-108
40
2
50
180
51
270
0
LINE
8
0
10
159.5
20
-110
11
175.9185844
21
-110
0
LINE
8
0
10
176.9185844
20
-110.2679492
11
188.3788486
21
-116.8845358
0
ARC
8
0
10
190.2643412
20
-116.2175144
40
2
50
199.4820001
51
225
0
LINE
8
0
10
188.8501276
20
-117.631728
11
202.1943601
21
-130.9759605
0
LINE
8
0
10
202.5121973
20
-131.3901741
11
213.5958713
21
-150.5876605
0
ARC
8
0
10
215.3279221
20
-149.5876605
40
2
50
210.0000001
51
300.0000001
0
LINE
8
0
10
216.3279221
20
-151.3197113
11
237.1125317
21
-139.3197113
0
ARC
8
0
10
236.1125317
20
-137.5876605
40
2
50
300.0000001
51
390.0000001
0
LINE
8
0
10
237.8445825
20
-136.5876605
11
227.1762451
21
-118.1095582
0
ARC
8
0
10
224.9125734
20
-116.9246212
40
2
50
357.3500279
51
405
0
LINE
8
0
10
226.326787
20
-115.5104076
11
220.730593
21
-109.9142136
0
LINE
8
0
10
222.1448066
20
-106.5
11
231.25
21
-106.5
0
ARC
8
0
10
231.25
20
-104.5
40
2
50
270
51
360
0
LINE
8
0
10
233.25
20
-104.5
11
233.25
21
-24.5
0
ARC
8
0
10
231.25
20
-24.5
40
2
50
0
51
90
0
LINE
8
0
10
231.25
20
-22.5
11
206.5
21
-22.5
0
LINE
8
0
10
204.5
20
-20.5
11
204.5
21
-18.5
0
ARC
8
0
10
202.5
20
-18.5
40
2
50
0
51
90
0
LINE
8
0
10
202.5
20
-16.5
11
186.5
21
-16.5
0
LINE
8
0
10
186.5
20
-16.5
11
186.5
21
-16
0
ARC
8
0
10
184.5
20
-16
40
2
50
0
51
90
0
LINE
8
0
10
184.5
20
-14
11
168.5
21
-14
0
LINE
8
0
10
168.5
20
-14
11
168.5
21
-13.5
0
ARC
8
0
10
166.5
20
-13.5
40
2
50
0
51
90
0
LINE
8
0
10
166.5
20
-11.5
11
141.5
21
-11.5
0
ARC
8
0
10
141.5
20
-13.5
40
2
50
90
51
180
0
LINE
8
0
10
139.5
20
-13.5
11
139.5
21
-14
0
LINE
8
0
10
139.5
20
-14
11
123.5
21
-14
0
ARC
8
0
10
123.5
20
-16
40
2
50
90
51
180
0
LINE
8
0
10
121.5
20
-16
11
121.5
21
-18
0
LINE
8
0
10
87.5
20
-18
11
121.5
21
-18
0
ARC
8
0
10
87.5
20
-20
40
2
50
90
51
180
0
LINE
8
0
10
85.5
20
-95
11
85.5
21
-20
0
ARC
8
0
10
87.5
20
-95
40
2
50
180
51
270
0
ARC
8
0
10
119.5
20
-99
40
2
50
0
51
90
0
ARC
8
0
10
175.9185844
20
-112
40
2
50
59.9999999
51
90
0
ARC
8
0
10
200.7801465
20
-132.3901741
40
2
50
30.0000001
51
45
0
ARC
8
0
10
228.9082959
20
-117.1095582
40
2
50
177.3500279
51
210.0000001
0
ARC
8
0
10
222.1448066
20
-108.5
40
2
50
90
51
225
0
ARC
8
0
10
206.5
20
-20.5
40
2
50
180
51
270
0
ENDSEC
0
EOF