0
SECTION
2
HEADER
9
$INSUNITS
70
4
0
ENDSEC
0
SECTION
2
TABLES
0
TABLE
2
LTYPE
0
LTYPE
72
65
70
64
2
CONTINUOUS
3
______
73
0
40
0
0
ENDTAB
0
TABLE
2
LAYER
0
ENDTAB
0
ENDSEC
0
SECTION
2
ENTITIES
0
LINE
8
0
10
358.5
20
-97
11
392.5
21
-97
0
ARC
8
0
10
392.5
20
-95
40
2
50
270
51
360
0
LINE
8
0
10
394.5
20
-95
11
394.5
21
-20
0
ARC
8
0
10
392.5
20
-20
40
2
50
0
51
90
0
LINE
8
0
10
358.5
20
-18
11
392.5
21
-18
0
LINE
8
0
10
358.5
20
-18
11
358.5
21
-16
0
ARC
8
0
10
356.5
20
-16
40
2
50
0
51
90
0
LINE
8
0
10
356.5
20
-14
11
340.5
21
-14
0
LINE
8
0
10
340.5
20
-14
11
340.5
21
-13.5
0
ARC
8
0
10
338.5
20
-13.5
40
2
50
0
51
90
0
LINE
8
0
10
338.5
20
-11.5
11
313.5
21
-11.5
0
ARC
8
0
10
313.5
20
-13.5
40
2
50
90
51
180
0
LINE
8
0
10
311.5
20
-13.5
11
311.5
21
-14
0
LINE
8
0
10
311.5
20
-14
11
295.5
21
-14
0
ARC
8
0
10
295.5
20
-16
40
2
50
90
51
180
0
LINE
8
0
10
293.5
20
-16
11
293.5
21
-16.5
0
LINE
8
0
10
293.5
20
-16.5
11
277.5
21
-16.5
0
ARC
8
0
10
277.5
20
-18.5
40
2
50
90
51
180
0
LINE
8
0
10
275.5
20
-18.5
11
275.5
21
-22.5
0
LINE
8
0
10
275.5
20
-22.5
11
248.75
21
-22.5
0
ARC
8
0
10
248.75
20
-24.5
40
2
50
90
51
180
0
LINE
8
0
10
246.75
20
-24.5
11
246.75
21
-104.5
0
ARC
8
0
10
248.75
20
-104.5
40
2
50
180
51
270
0
LINE
8
0
10
248.75
20
-106.5
11
262.6836206
21
-106.5
0
LINE
8
0
10
262.6836206
20
-106.5
11
253.673213
21
-115.5104076
0
ARC
8
0
10
255.0874266
20
-116.9246212
40
2
50
135
51
196.8457856
0
LINE
8
0
10
253.1732502
20
-117.5042146
11
242.1554175
21
-136.5876605
0
ARC
8
0
10
243.8874683
20
-137.5876605
40
2
50
149.9999999
51
240.0000001
0
LINE
8
0
10
242.8874683
20
-139.3197113
11
263.6720779
21
-151.3197113
0
ARC
8
0
10
264.6720779
20
-149.5876605
40
2
50
239.9999999
51
329.9999999
0
LINE
8
0
10
266.4041287
20
-150.5876605
11
277.6194553
21
-131.1621451
0
LINE
8
0
10
277.6194553
20
-131.1621451
11
291.1498724
21
-117.631728
0
ARC
8
0
10
289.7356588
20
-116.2175144
40
2
50
315
51
340.5179999
0
LINE
8
0
10
291.6211514
20
-116.8845358
11
303.5455172
21
-110
0
LINE
8
0
10
303.5455172
20
-110
11
320.5
21
-110
0
ARC
8
0
10
320.5
20
-108
40
2
50
270
51
360
0
LINE
8
0
10
322.5
20
-108
11
322.5
21
-107.5
0
LINE
8
0
10
322.5
20
-107.5
11
329.5
21
-107.5
0
LINE
8
0
10
329.5
20
-107.5
11
329.5
21
-108
0
ARC
8
0
10
331.5
20
-108
40
2
50
180
51
270
0
LINE
8
0
10
331.5
20
-110
11
356.5
21
-110
0
ARC
8
0
10
356.5
20
-108
40
2
50
270
51
360
0
LINE
8
0
10
358.5
20
-108
11
358.5
21
-97
0
LINE
8
0
10
87.5
20
-97
11
121.5
21
-97
0
LINE
8
0
10
121.5
20
-97
11
121.5
21
-108
0
ARC
8
0
10
123.5
20
-108
40
2
50
180
51
270
0
LINE
8
0
10
123.5
20
-110
11
148.5
21
-110
0
ARC
8
0
10
148.5
20
-108
40
2
50
270
51
360
0
LINE
8
0
10
150.5
20
-108
11
150.5
21
-107.5
0
LINE
8
0
10
150.5
20
-107.5
11
157.5
21
-107.5
0
LINE
8
0
10
157.5
20
-107.5
11
157.5
21
-108
0
ARC
8
0
10
159.5
20
-108
40
2
50
180
51
270
0
LINE
8
0
10
159.5
20
-110
11
176.4544828
21
-110
0
LINE
8
0
10
176.4544828
20
-110
11
188.3788486
21
-116.8845358
0
ARC
8
0
10
190.2643412
20
-116.2175144
40
2
50
199.4820001
51
225
0
LINE
8
0
10
188.8501276
20
-117.631728
11
202.3805447
21
-131.1621451
0
LINE
8
0
10
202.3805447
20
-131.1621451
11
213.5958713
21
-150.5876605
0
ARC
8
0
10
215.3279221
20
-149.5876605
40
2
50
210.0000001
51
300.0000001
0
LINE
8
0
10
216.3279221
20
-151.3197113
11
237.1125317
21
-139.3197113
0
ARC
8
0
10
236.1125317
20
-137.5876605
40
2
50
300.0000001
51
390.0000001
0
LINE
8
0
10
237.8445825
20
-136.5876605
11
226.8267498
21
-117.5042146
0
ARC
8
0
10
224.9125734
20
-116.9246212
40
2
50
343.1542144
51
405
0
LINE
8
0
10
226.326787
20
-115.5104076
11
211.1491239
21
-100.3327446
0
LINE
8
0
10
211.1491239
20
-100.3327446
11
211.2894191
21
-100.089746
0
ARC
8
0
10
209.5573683
20
-99.089746
40
2
50
329.9999999
51
420.0000018
0
LINE
8
0
10
210.5573683
20
-97.3576952
11
204.4703106
21
-93.8433308
0
ARC
8
0
10
202.5
20
-93.5
40
2
50
350.1153368
51
360
0
LINE
8
0
10
204.5
20
-93.5
11
204.5
21
-18.5
0
ARC
8
0
10
202.5
20
-18.5
40
2
50
0
51
90
0
LINE
8
0
10
202.5
20
-16.5
11
186.5
21
-16.5
0
LINE
8
0
10
186.5
20
-16.5
11
186.5
21
-16
0
ARC
8
0
10
184.5
20
-16
40
2
50
0
51
90
0
LINE
8
0
10
184.5
20
-14
11
168.5
21
-14
0
LINE
8
0
10
168.5
20
-14
11
168.5
21
-13.5
0
ARC
8
0
10
166.5
20
-13.5
40
2
50
0
51
90
0
LINE
8
0
10
166.5
20
-11.5
11
141.5
21
-11.5
0
ARC
8
0
10
141.5
20
-13.5
40
2
50
90
51
180
0
LINE
8
0
10
139.5
20
-13.5
11
139.5
21
-14
0
LINE
8
0
10
139.5
20
-14
11
123.5
21
-14
0
ARC
8
0
10
123.5
20
-16
40
2
50
90
51
180
0
LINE
8
0
10
121.5
20
-16
11
121.5
21
-18
0
LINE
8
0
10
87.5
20
-18
11
121.5
21
-18
0
ARC
8
0
10
87.5
20
-20
40
2
50
90
51
180
0
LINE
8
0
10
85.5
20
-95
11
85.5
21
-20
0
ARC
8
0
10
87.5
20
-95
40
2
50
180
51
270
0
ENDSEC
0
EOF