0
SECTION
2
HEADER
9
$INSUNITS
70
4
0
ENDSEC
0
SECTION
2
TABLES
0
TABLE
2
LTYPE
0
LTYPE
72
65
70
64
2
CONTINUOUS
3
______
73
0
40
0
0
ENDTAB
0
TABLE
2
LAYER
0
ENDTAB
0
ENDSEC
0
SECTION
2
ENTITIES
0
LINE
8
0
10
360.5
20
-97
11
392.5
21
-97
0
ARC
8
0
10
392.5
20
-95
40
2
50
270
51
360
0
LINE
8
0
10
394.5
20
-95
11
394.5
21
-20
0
ARC
8
0
10
392.5
20
-20
40
2
50
0
51
90
0
LINE
8
0
10
358.5
20
-18
11
392.5
21
-18
0
LINE
8
0
10
358.5
20
-18
11
358.5
21
-16
0
ARC
8
0
10
356.5
20
-16
40
2
50
0
51
90
0
LINE
8
0
10
356.5
20
-14
11
340.5
21
-14
0
LINE
8
0
10
340.5
20
-14
11
340.5
21
-13.5
0
ARC
8
0
10
338.5
20
-13.5
40
2
50
0
51
90
0
LINE
8
0
10
338.5
20
-11.5
11
313.5
21
-11.5
0
ARC
8
0
10
313.5
20
-13.5
40
2
50
90
51
180
0
LINE
8
0
10
311.5
20
-13.5
11
311.5
21
-14
0
LINE
8
0
10
311.5
20
-14
11
295.5
21
-14
0
ARC
8
0
10
295.5
20
-16
40
2
50
90
51
180
0
LINE
8
0
10
293.5
20
-16
11
293.5
21
-16.5
0
LINE
8
0
10
293.5
20
-16.5
11
277.5
21
-16.5
0
ARC
8
0
10
277.5
20
-18.5
40
2
50
90
51
180
0
LINE
8
0
10
275.5
20
-18.5
11
275.5
21
-20.5
0
LINE
8
0
10
273.5
20
-22.5
11
248.75
21
-22.5
0
ARC
8
0
10
248.75
20
-24.5
40
2
50
90
51
180
0
LINE
8
0
10
246.75
20
-24.5
11
246.75
21
-104.5
0
ARC
8
0
10
248.75
20
-104.5
40
2
50
180
51
270
0
LINE
8
0
10
248.75
20
-106.5
11
257.8551934
21
-106.5
0
LINE
8
0
10
259.269407
20
-109.9142136
11
253.673213
21
-115.5104076
0
ARC
8
0
10
255.0874266
20
-116.9246212
40
2
50
135
51
182.6499721
0
LINE
8
0
10
252.8237549
20
-118.1095582
11
242.1554175
21
-136.5876605
0
ARC
8
0
10
243.8874683
20
-137.5876605
40
2
50
149.9999999
51
240.0000001
0
LINE
8
0
10
242.8874683
20
-139.3197113
11
263.6720779
21
-151.3197113
0
ARC
8
0
10
264.6720779
20
-149.5876605
40
2
50
239.9999999
51
329.9999999
0
LINE
8
0
10
266.4041287
20
-150.5876605
11
277.4878027
21
-131.3901741
0
LINE
8
0
10
277.8056399
20
-130.9759605
11
291.1498724
21
-117.631728
0
ARC
8
0
10
289.7356588
20
-116.2175144
40
2
50
315
51
340.5179999
0
LINE
8
0
10
291.6211514
20
-116.8845358
11
303.0814156
21
-110.2679492
0
LINE
8
0
10
304.0814156
20
-110
11
320.5
21
-110
0
ARC
8
0
10
320.5
20
-108
40
2
50
270
51
360
0
LINE
8
0
10
322.5
20
-108
11
322.5
21
-107.5
0
LINE
8
0
10
322.5
20
-107.5
11
329.5
21
-107.5
0
LINE
8
0
10
329.5
20
-107.5
11
329.5
21
-108
0
ARC
8
0
10
331.5
20
-108
40
2
50
180
51
270
0
LINE
8
0
10
331.5
20
-110
11
356.5
21
-110
0
ARC
8
0
10
356.5
20
-108
40
2
50
270
51
360
0
LINE
8
0
10
358.5
20
-108
11
358.5
21
-99
0
ARC
8
0
10
273.5
20
-20.5
40
2
50
270
51
0
0
ARC
8
0
10
257.8551934
20
-108.5
40
2
50
315
51
90
0
ARC
8
0
10
251.0917041
20
-117.1095582
40
2
50
329.9999999
51
2.6499721
0
ARC
8
0
10
279.2198535
20
-132.3901741
40
2
50
135
51
149.9999999
0
ARC
8
0
10
304.0814156
20
-112
40
2
50
90
51
120.0000001
0
ARC
8
0
10
360.5
20
-99
40
2
50
90
51
180
0
ENDSEC
0
EOF