0
SECTION
2
HEADER
9
$INSUNITS
70
4
0
ENDSEC
0
SECTION
2
TABLES
0
TABLE
2
LTYPE
0
LTYPE
72
65
70
64
2
CONTINUOUS
3
______
73
0
40
0
0
ENDTAB
0
TABLE
2
LAYER
0
ENDTAB
0
ENDSEC
0
SECTION
2
ENTITIES
0
LINE
8
0
10
87.5
20
-95
11
123.5
21
-95
0
LINE
8
0
10
87.5
20
-95
11
87.5
21
-20
0
LINE
8
0
10
87.5
20
-20
11
123.5
21
-20
0
LINE
8
0
10
123.5
20
-108
11
148.5
21
-108
0
LINE
8
0
10
148.5
20
-108
11
148.5
21
-105.5
0
LINE
8
0
10
123.5
20
-95
11
123.5
21
-108
0
LINE
8
0
10
141.5
20
-16
11
123.5
21
-16
0
LINE
8
0
10
123.5
20
-16
11
123.5
21
-20
0
LINE
8
0
10
148.5
20
-105.5
11
159.5
21
-105.5
0
LINE
8
0
10
166.5
20
-16
11
166.5
21
-13.5
0
LINE
8
0
10
166.5
20
-13.5
11
141.5
21
-13.5
0
LINE
8
0
10
141.5
20
-13.5
11
141.5
21
-16
0
LINE
8
0
10
159.5
20
-108
11
176.9903812
21
-108
0
LINE
8
0
10
159.5
20
-105.5
11
159.5
21
-108
0
LINE
8
0
10
184.5
20
-18.5
11
184.5
21
-16
0
LINE
8
0
10
184.5
20
-16
11
166.5
21
-16
0
LINE
8
0
10
199.8756443
20
-93.5
11
202.5
21
-93.5
0
LINE
8
0
10
202.5
20
-93.5
11
202.5
21
-18.5
0
LINE
8
0
10
202.5
20
-18.5
11
184.5
21
-18.5
0
LINE
8
0
10
176.9903812
20
-108
11
190.61543
21
-115.8664256
0
LINE
8
0
10
208.649746
20
-100.6617938
11
209.5573683
21
-99.089746
0
LINE
8
0
10
209.5573683
20
-99.089746
11
199.8756443
21
-93.5
0
LINE
8
0
10
190.2643412
20
-116.2175144
11
203.9809429
21
-129.9341161
0
LINE
8
0
10
224.4498651
20
-117.3873295
11
224.9125734
21
-116.9246212
0
LINE
8
0
10
224.9125734
20
-116.9246212
11
208.649746
21
-100.6617938
0
LINE
8
0
10
190.61543
20
-115.8664256
11
190.2643412
21
-116.2175144
0
LINE
8
0
10
203.9809429
20
-129.9341161
11
215.3279221
21
-149.5876605
0
LINE
8
0
10
215.3279221
20
-149.5876605
11
236.1125317
21
-137.5876605
0
LINE
8
0
10
236.1125317
20
-137.5876605
11
224.4498651
21
-117.3873295
0
LINE
8
0
10
356.5
20
-95
11
392.5
21
-95
0
LINE
8
0
10
392.5
20
-95
11
392.5
21
-20
0
LINE
8
0
10
356.5
20
-20
11
392.5
21
-20
0
LINE
8
0
10
331.5
20
-108
11
356.5
21
-108
0
LINE
8
0
10
356.5
20
-108
11
356.5
21
-95
0
LINE
8
0
10
331.5
20
-105.5
11
331.5
21
-108
0
LINE
8
0
10
356.5
20
-20
11
356.5
21
-16
0
LINE
8
0
10
356.5
20
-16
11
338.5
21
-16
0
LINE
8
0
10
320.5
20
-105.5
11
331.5
21
-105.5
0
LINE
8
0
10
338.5
20
-16
11
338.5
21
-13.5
0
LINE
8
0
10
338.5
20
-13.5
11
313.5
21
-13.5
0
LINE
8
0
10
313.5
20
-13.5
11
313.5
21
-16
0
LINE
8
0
10
303.0096188
20
-108
11
320.5
21
-108
0
LINE
8
0
10
320.5
20
-108
11
320.5
21
-105.5
0
LINE
8
0
10
313.5
20
-16
11
295.5
21
-16
0
LINE
8
0
10
295.5
20
-16
11
295.5
21
-18.5
0
LINE
8
0
10
295.5
20
-18.5
11
277.5
21
-18.5
0
LINE
8
0
10
277.5
20
-18.5
11
277.5
21
-24.5
0
LINE
8
0
10
289.38457
20
-115.8664256
11
303.0096188
21
-108
0
LINE
8
0
10
276.0190571
20
-129.9341161
11
289.7356588
21
-116.2175144
0
LINE
8
0
10
289.7356588
20
-116.2175144
11
289.38457
21
-115.8664256
0
LINE
8
0
10
267.5120478
20
-104.5
11
255.0874266
21
-116.9246212
0
LINE
8
0
10
255.0874266
20
-116.9246212
11
255.5501349
21
-117.3873295
0
LINE
8
0
10
264.6720779
20
-149.5876605
11
276.0190571
21
-129.9341161
0
LINE
8
0
10
255.5501349
20
-117.3873295
11
243.8874683
21
-137.5876605
0
LINE
8
0
10
243.8874683
20
-137.5876605
11
264.6720779
21
-149.5876605
0
LINE
8
0
10
248.75
20
-104.5
11
267.5120478
21
-104.5
0
LINE
8
0
10
277.5
20
-24.5
11
248.75
21
-24.5
0
LINE
8
0
10
248.75
20
-24.5
11
248.75
21
-104.5
0
ENDSEC
0
EOF